<?xml version="1.0" standalone="no"?>
<!DOCTYPE svg PUBLIC "-//W3C//DTD SVG 20010904//EN"
 "http://www.w3.org/TR/2001/REC-SVG-20010904/DTD/svg10.dtd">
<svg version="1.0" xmlns="http://www.w3.org/2000/svg"
 width="384.000000pt" height="384.000000pt" viewBox="0 0 384.000000 384.000000"
 preserveAspectRatio="xMidYMid meet">
<metadata>
Created by potrace 1.14, written by Peter Selinger 2001-2017
</metadata>
<g transform="translate(0.000000,384.000000) scale(0.100000,-0.100000)"
fill="#000000" stroke="none">
<path d="M1640 3820 c-316 -47 -585 -157 -853 -347 -112 -80 -347 -316 -429
-433 -393 -557 -468 -1252 -202 -1883 91 -217 219 -403 409 -592 266 -266 538
-421 893 -510 548 -136 1121 -24 1595 312 112 80 347 316 429 433 393 557 468
1252 202 1883 -91 217 -219 403 -409 592 -225 225 -439 361 -726 461 -274 96
-621 128 -909 84z m-607 -714 c18 -8 221 -156 452 -330 231 -173 427 -315 435
-315 8 0 210 146 448 324 308 231 443 326 468 331 81 15 166 -25 200 -93 18
-37 19 -78 22 -1081 1 -700 -1 -1057 -8 -1082 -45 -166 -270 -183 -341 -25
-17 38 -19 84 -19 798 0 832 2 801 -60 827 -37 15 -22 21 -333 -120 -165 -75
-234 -111 -245 -129 -15 -23 -18 -93 -22 -686 l-5 -660 -99 -3 c-55 -1 -103 1
-108 6 -5 5 -8 297 -8 650 0 545 -2 647 -15 677 -16 39 -18 41 -373 199 -188
84 -204 87 -248 39 l-24 -26 0 -766 c0 -722 -2 -768 -19 -806 -71 -157 -295
-142 -341 23 -15 55 -14 2088 2 2133 18 53 44 85 90 108 50 24 105 27 151 7z"/>
</g>
</svg>
